<svg version="1.1" id="Layer_1" xmlns="http://www.w3.org/2000/svg" xmlns:xlink="http://www.w3.org/1999/xlink" x="0px" y="0px"
	 width="100%" viewBox="0 0 682 366" enable-background="new 0 0 682 366" xml:space="preserve">
<path fill="#010101" opacity="1.000000" stroke="none" 
	d="
M490.000000,367.000000 
	C326.705475,367.000000 163.910965,367.000000 1.058219,367.000000 
	C1.058219,245.067917 1.058219,123.135796 1.058219,1.101839 
	C228.211227,1.101839 455.422516,1.101839 682.816895,1.101839 
	C682.816895,122.999771 682.816895,244.999863 682.816895,367.000000 
	C618.802429,367.000000 554.651184,367.000000 490.000000,367.000000 
M608.524353,137.945602 
	C608.396484,143.105576 608.038879,148.271957 608.182617,153.424347 
	C608.663208,170.652924 617.567993,182.631165 633.802673,188.252731 
	C635.248901,188.753525 636.653442,189.374786 638.677429,190.178345 
	C616.411560,197.547577 607.610168,209.312714 608.262817,231.948273 
	C608.708496,247.405258 610.527588,262.818390 611.496521,278.265961 
	C612.225281,289.884033 613.039062,301.529114 612.951660,313.155701 
	C612.883911,322.167145 607.578003,327.623322 598.741943,329.162323 
	C594.835144,329.842834 590.800293,329.829407 586.818298,330.021423 
	C584.415833,330.137299 582.003174,330.042755 579.596313,330.042755 
	C579.596313,338.096375 579.596313,345.346680 579.596313,353.336609 
	C588.881409,352.895233 597.934326,353.212891 606.741272,351.891510 
	C625.432007,349.087219 637.987488,334.934326 638.946106,316.040619 
	C639.358215,307.919861 638.976929,299.717743 638.379639,291.595001 
	C636.963684,272.338776 634.944946,253.125137 633.661255,233.861542 
	C632.582397,217.672058 639.399780,208.069565 654.658081,202.869690 
	C657.302612,201.968445 659.963196,201.114349 662.844543,200.163147 
	C662.844543,193.571381 662.844543,186.957550 662.844543,180.095688 
	C660.586182,179.466141 658.355164,178.879456 656.145081,178.222397 
	C641.238525,173.790878 633.292297,163.938126 633.561157,149.203506 
	C633.737000,139.560989 634.790894,129.934280 635.458374,120.300987 
	C636.688843,102.541573 638.507629,84.797783 638.972961,67.018471 
	C639.344177,52.835373 633.418640,40.974636 620.818787,33.566692 
	C607.981873,26.019449 593.764282,27.077641 579.597290,27.588106 
	C579.597290,35.378284 579.597290,42.623138 579.597290,50.442234 
	C582.524536,50.442234 585.157654,50.447590 587.790771,50.441380 
	C608.250977,50.393131 614.353333,56.378654 613.197571,76.761497 
	C612.057434,96.868134 610.173767,116.932594 608.524353,137.945602 
M49.021049,109.585907 
	C49.933357,121.705399 51.196140,133.811325 51.665787,145.947952 
	C52.205421,159.893066 46.314934,168.567017 33.483082,173.931473 
	C29.997009,175.388840 26.326836,176.405838 22.588032,177.677017 
	C22.588032,184.245544 22.588032,190.875305 22.588032,197.589996 
	C24.188168,198.027740 25.619026,198.433365 27.057348,198.810486 
	C44.912624,203.492249 52.640892,213.882660 51.594238,232.196365 
	C51.062378,241.502518 50.094631,250.782913 49.453358,260.083862 
	C48.297176,276.852936 46.461174,293.623474 46.348156,310.403107 
	C46.224777,328.720337 56.943523,343.099243 73.351173,346.785706 
	C83.575157,349.082825 94.339592,348.974548 105.053406,349.963501 
	C105.053406,341.253998 105.053406,333.895966 105.053406,326.207672 
	C100.272003,326.207672 95.945427,326.352051 91.631363,326.180939 
	C78.036362,325.641632 71.733978,319.479950 71.814621,305.884338 
	C71.873787,295.909821 72.837105,285.937775 73.485794,275.970367 
	C74.609978,258.696716 76.482338,241.437820 76.745125,224.153046 
	C76.944824,211.017365 71.506088,199.762238 59.603172,192.803375 
	C55.764481,190.559143 51.409721,189.197647 47.146641,187.370438 
	C47.651066,187.023880 47.895916,186.791656 48.186935,186.669006 
	C48.798767,186.411133 49.425655,186.179749 50.062317,185.991425 
	C64.695580,181.663177 74.455353,172.259567 75.889488,156.967163 
	C77.013481,144.981796 75.980392,132.748810 75.348969,120.654892 
	C74.420532,102.872040 72.497818,85.130112 71.961479,67.341721 
	C71.614655,55.838684 78.381371,49.619850 89.917809,48.974594 
	C94.871582,48.697521 99.853752,48.928219 105.165916,48.928219 
	C105.165916,40.996952 105.165916,33.622471 105.165916,26.330767 
	C96.828568,26.330767 88.819901,25.889048 80.883102,26.455023 
	C72.948914,27.020811 65.749283,30.164009 59.541382,35.307819 
	C50.127014,43.108479 46.041641,53.581062 46.267761,65.326195 
	C46.546146,79.786354 48.001335,94.223869 49.021049,109.585907 
M188.968292,93.900391 
	C188.968292,115.830276 188.968292,137.760162 188.968292,159.741302 
	C192.943985,159.741302 196.346664,159.741302 199.778534,159.741302 
	C199.778534,131.917786 199.778534,104.357025 199.778534,76.828873 
	C185.731827,75.274948 185.719070,75.268570 179.762756,87.181915 
	C178.501068,89.705406 177.365128,92.291954 176.180023,94.853493 
	C172.002060,103.883995 167.827850,112.916229 163.291397,122.728271 
	C162.064148,120.370804 161.266220,118.940804 160.560684,117.466583 
	C154.541122,104.888466 148.576401,92.283798 142.473740,79.746231 
	C141.838531,78.441254 140.487701,76.669075 139.344528,76.571548 
	C134.969406,76.198303 130.543488,76.420624 126.273651,76.420624 
	C126.273651,104.749290 126.273651,132.312500 126.273651,159.743469 
	C129.728470,159.743469 132.834702,159.743469 136.603363,159.743469 
	C136.603363,136.604370 136.603363,113.720215 136.603363,90.836075 
	C144.260086,105.144447 150.971588,119.561287 157.948914,133.848282 
	C158.667114,135.318878 160.975250,136.843353 162.540466,136.837997 
	C164.127792,136.832581 166.307434,135.313217 167.175980,133.837814 
	C169.440338,129.991379 171.123367,125.803360 173.048187,121.756310 
	C178.063095,111.212173 183.083328,100.670563 188.101440,90.127953 
	C188.401932,90.173706 188.702408,90.219467 189.002899,90.265221 
	C189.002899,91.179688 189.002899,92.094154 188.968292,93.900391 
M504.979309,227.501709 
	C504.979309,221.882202 504.979309,216.262695 504.979309,210.183502 
	C500.922211,210.183502 497.282349,210.410095 493.685181,210.115341 
	C490.528870,209.856705 489.020508,211.026505 487.773712,213.911331 
	C484.155121,222.283859 480.180939,230.503067 476.325989,238.772980 
	C473.656494,244.499710 470.953461,250.210785 467.888977,256.729645 
	C460.790649,241.819565 454.216034,227.876526 447.465790,214.019073 
	C446.721802,212.491699 445.083649,210.535995 443.667480,210.363785 
	C439.603821,209.869629 435.441193,210.189651 431.206299,210.189651 
	C431.206299,238.311707 431.206299,265.981689 431.206299,293.489136 
	C434.673767,293.489136 437.738464,293.489136 441.058899,293.489136 
	C441.058899,270.060242 441.058899,246.984634 441.058899,223.909012 
	C442.190826,224.612732 442.628143,225.590408 443.083679,226.559509 
	C449.502686,240.215790 455.973358,253.848190 462.298767,267.547699 
	C463.409973,269.954407 464.785706,271.730347 467.474762,270.807068 
	C469.193176,270.217072 471.269531,269.002960 472.010132,267.492432 
	C478.580078,254.092407 484.879974,240.560059 491.284668,227.078659 
	C491.837097,225.915833 492.569824,224.838623 493.218781,223.721649 
	C493.518219,223.848373 493.817627,223.975098 494.117065,224.101822 
	C494.117065,247.199265 494.117065,270.296692 494.117065,293.592773 
	C497.804260,293.592773 501.198517,293.592773 504.979309,293.592773 
	C504.979309,271.727844 504.979309,250.114365 504.979309,227.501709 
M286.931152,147.383804 
	C297.066589,131.021255 297.641235,113.808945 290.880981,96.249802 
	C286.008514,83.593994 275.938019,76.867104 262.872650,75.157738 
	C248.580399,73.287865 235.468857,76.405350 226.271088,88.465729 
	C215.420258,102.693695 215.166901,130.044937 224.417114,145.414627 
	C236.376083,165.285049 271.939240,167.840775 286.931152,147.383804 
M350.937347,290.285645 
	C351.496216,294.378754 353.436768,294.907776 362.234375,293.157776 
	C362.234375,282.493988 362.234375,271.735718 362.234375,260.673309 
	C365.987213,260.673309 369.321991,260.900543 372.611755,260.612854 
	C376.294861,260.290741 378.720093,261.532013 381.059052,264.491882 
	C387.348938,272.451508 394.089905,280.052917 400.563843,287.869385 
	C405.740967,294.120087 410.749207,295.589325 419.121735,292.915192 
	C409.013306,281.131622 398.968719,269.422455 388.744171,257.503510 
	C390.276825,256.707550 391.593475,256.088287 392.848114,255.361908 
	C402.191559,249.952805 406.069580,241.585953 405.465179,231.098389 
	C404.943024,222.037827 400.119720,215.802902 391.580078,212.882751 
	C378.340424,208.355408 364.670593,210.731796 350.934723,210.181244 
	C350.934723,237.023529 350.934723,263.175110 350.937347,290.285645 
M239.136108,256.601990 
	C239.136108,268.875610 239.136108,281.149261 239.136108,293.600464 
	C243.130997,293.600464 246.529022,293.600464 250.062866,293.600464 
	C250.062866,265.739319 250.062866,238.134354 250.062866,210.478775 
	C246.391220,210.478775 242.980331,210.478775 239.012939,210.478775 
	C239.012939,221.480408 239.012939,232.189102 239.012939,242.671173 
	C224.885269,242.671173 211.326508,242.671173 197.361786,242.671173 
	C197.361786,231.686981 197.361786,221.077118 197.361786,210.360748 
	C193.661697,210.360748 190.380432,210.360748 186.962311,210.360748 
	C186.962311,238.254303 186.962311,265.952789 186.962311,293.571289 
	C190.606888,293.571289 193.871979,293.571289 197.732910,293.571289 
	C197.732910,279.930237 197.732910,266.556366 197.732910,252.966019 
	C210.987076,252.966019 223.632706,252.908234 236.275192,253.080612 
	C237.240097,253.093781 238.182785,254.735840 239.136108,256.601990 
M105.686813,227.507767 
	C105.717514,231.269241 105.085129,235.181854 105.901581,238.764252 
	C108.490158,250.122360 117.892281,253.462509 127.654991,255.828873 
	C134.579422,257.507263 141.701950,258.369934 148.623535,260.057953 
	C153.267990,261.190643 156.520004,264.133575 157.013199,269.375305 
	C157.528961,274.856720 155.764679,279.253326 150.984283,282.094513 
	C149.014587,283.265198 146.795090,284.231415 144.564575,284.711395 
	C132.599747,287.286072 121.499260,284.664124 111.047661,278.679291 
	C108.995644,277.504242 107.025322,276.186493 104.743828,274.764038 
	C104.339737,291.890503 101.698364,287.483551 116.118393,292.855133 
	C116.893211,293.143799 117.718781,293.312805 118.532967,293.476715 
	C131.313171,296.048920 143.986801,296.846802 156.002243,290.441345 
	C164.477310,285.923279 169.313690,276.849396 168.700455,268.361237 
	C167.924103,257.615356 161.588776,252.023727 151.980545,249.145401 
	C150.391129,248.669250 148.752045,248.353394 147.128387,247.997910 
	C139.669495,246.364914 132.133530,245.019608 124.770973,243.031372 
	C118.931328,241.454391 116.725189,237.890854 116.764862,231.956375 
	C116.811012,225.052856 122.088585,220.095245 130.676865,219.045944 
	C143.086838,217.529709 154.421967,220.464661 165.333679,228.009750 
	C165.333679,224.217865 165.648056,220.895874 165.196014,217.681702 
	C164.982178,216.161285 163.599792,214.105164 162.237915,213.557648 
	C151.867966,209.388550 140.961899,207.791611 129.925430,209.243057 
	C118.998016,210.680191 109.982674,215.511093 105.686813,227.507767 
M352.734131,150.733475 
	C351.921204,150.910873 351.109436,151.093552 350.295227,151.264862 
	C333.421875,154.815063 323.765594,147.899948 322.653564,130.671097 
	C321.978729,120.214813 322.414551,109.685966 322.378845,99.189629 
	C322.353485,91.729263 322.373932,84.268738 322.373932,76.630234 
	C318.497437,76.630234 315.113464,76.630234 311.825714,76.630234 
	C311.825714,95.743507 311.705933,114.524063 311.879761,133.301895 
	C311.958435,141.801514 314.763367,149.651245 321.615540,154.870911 
	C333.133240,163.644516 346.278076,163.598053 359.070618,158.601837 
	C370.681061,154.067291 374.745392,143.692825 375.018463,132.019958 
	C375.435242,114.199829 375.293671,96.366562 375.365753,78.538780 
	C375.368317,77.908066 375.120911,77.276344 374.990112,76.645622 
	C371.419830,76.645622 368.025177,76.645622 364.283997,76.645622 
	C364.283997,79.167885 364.293030,81.307930 364.282562,83.447884 
	C364.201996,99.943474 364.318909,116.443619 363.944214,132.932571 
	C363.772858,140.472931 360.731110,146.827103 352.734131,150.733475 
M587.357422,293.850525 
	C588.994812,293.850525 590.632202,293.850525 592.908875,293.850525 
	C582.674622,265.674805 572.624207,238.005157 562.516724,210.178329 
	C559.592957,210.178329 556.887207,210.507645 554.293701,210.108109 
	C549.270935,209.334305 547.155212,211.387756 545.551392,216.160278 
	C540.750305,230.446976 535.274048,244.505859 530.128479,258.678040 
	C525.951965,270.181091 521.872375,281.719360 517.615662,293.616943 
	C521.576416,293.616943 525.002319,293.616943 528.727356,293.616943 
	C531.084534,287.037659 533.334229,280.297211 535.988953,273.720215 
	C536.549316,272.331940 538.569641,270.655884 539.957275,270.619019 
	C549.939270,270.354095 559.934937,270.352875 569.916870,270.620209 
	C571.322815,270.657837 573.344360,272.328094 573.935181,273.726654 
	C575.995117,278.602905 577.841370,283.614349 579.207825,288.724426 
	C580.295349,292.791718 582.265015,294.698792 587.357422,293.850525 
M327.258179,293.734192 
	C330.733826,293.734192 334.209442,293.734192 338.327118,293.734192 
	C328.111389,265.669952 318.029541,237.973526 307.994659,210.406189 
	C302.835327,210.406189 298.061462,210.406189 293.214081,210.406189 
	C283.113892,238.202988 273.080353,265.816315 262.934570,293.738525 
	C267.087463,293.738525 270.401123,293.738525 274.124847,293.738525 
	C276.434723,287.221558 278.866791,280.709412 281.020386,274.106445 
	C281.846008,271.575134 282.826935,270.337555 285.815338,270.407623 
	C295.475525,270.634125 305.146912,270.621643 314.808136,270.419525 
	C317.751160,270.357941 318.818909,271.549469 319.663971,274.103638 
	C321.799377,280.557892 324.224762,286.916168 327.258179,293.734192 
M546.612610,105.124672 
	C555.411011,95.828148 564.209412,86.531624 573.799500,76.398521 
	C569.590820,76.398521 566.755798,76.131889 564.001404,76.488380 
	C562.029236,76.743622 559.612915,77.305893 558.341980,78.636147 
	C549.724548,87.655800 541.383789,96.939125 532.901489,106.088837 
	C528.857361,110.451195 524.698792,114.707474 519.845093,119.794640 
	C519.845093,104.619736 519.845093,90.817429 519.845093,76.782059 
	C516.144348,76.782059 512.625061,76.782059 509.218414,76.782059 
	C509.218414,104.723099 509.218414,132.281494 509.218414,159.668900 
	C512.976868,159.668900 516.382629,159.668900 519.986328,159.668900 
	C519.986328,152.520218 520.633850,145.629532 519.816772,138.917160 
	C518.868835,131.130081 523.460632,127.273743 528.493042,123.035698 
	C537.613342,133.344864 547.148499,142.977005 555.260864,153.686905 
	C560.873047,161.096085 567.419067,160.269211 575.306580,159.656433 
	C562.133423,144.702133 549.421509,130.271408 536.644836,115.767242 
	C539.997498,112.194351 543.068115,108.921967 546.612610,105.124672 
M420.506165,150.005264 
	C416.256439,150.005264 412.006714,150.005264 407.279846,150.005264 
	C407.279846,125.082520 407.279846,100.859818 407.279846,76.682983 
	C403.516449,76.682983 400.254028,76.682983 396.758179,76.682983 
	C396.758179,104.527405 396.758179,132.087311 396.758179,159.681015 
	C414.348999,159.681015 431.723114,159.681015 449.012390,159.681015 
	C449.012390,156.388107 449.012390,153.431061 449.012390,150.005264 
	C439.723480,150.005264 430.614410,150.005264 420.506165,150.005264 
M478.893463,89.608421 
	C478.956543,88.166809 479.019623,86.725189 479.104492,84.785660 
	C482.809052,84.785660 486.195679,84.785660 489.544159,84.785660 
	C489.544159,81.820229 489.544159,79.382584 489.544159,76.706924 
	C478.577118,76.706924 467.859924,76.706924 457.162781,76.706924 
	C457.162781,79.615501 457.162781,82.196869 457.162781,85.254074 
	C460.824188,85.254074 464.202423,85.254074 467.419098,85.254074 
	C467.419098,107.484253 467.419098,129.221924 467.419098,151.385010 
	C463.824127,151.385010 460.547791,151.385010 457.078735,151.385010 
	C457.078735,154.401627 457.078735,156.989517 457.078735,159.729462 
	C467.937408,159.729462 478.668549,159.729462 489.456238,159.729462 
	C489.456238,156.881561 489.456238,154.326523 489.456238,151.369934 
	C485.855530,151.369934 482.594421,151.369934 478.893402,151.369934 
	C478.893402,130.836472 478.893402,110.713188 478.893463,89.608421 
z"/>
<path fill="#1DE9E1" opacity="1.000000" stroke="none" 
	d="
M608.570312,137.480591 
	C610.173767,116.932594 612.057434,96.868134 613.197571,76.761497 
	C614.353333,56.378654 608.250977,50.393131 587.790771,50.441380 
	C585.157654,50.447590 582.524536,50.442234 579.597290,50.442234 
	C579.597290,42.623138 579.597290,35.378284 579.597290,27.588106 
	C593.764282,27.077641 607.981873,26.019449 620.818787,33.566692 
	C633.418640,40.974636 639.344177,52.835373 638.972961,67.018471 
	C638.507629,84.797783 636.688843,102.541573 635.458374,120.300987 
	C634.790894,129.934280 633.737000,139.560989 633.561157,149.203506 
	C633.292297,163.938126 641.238525,173.790878 656.145081,178.222397 
	C658.355164,178.879456 660.586182,179.466141 662.844543,180.095688 
	C662.844543,186.957550 662.844543,193.571381 662.844543,200.163147 
	C659.963196,201.114349 657.302612,201.968445 654.658081,202.869690 
	C639.399780,208.069565 632.582397,217.672058 633.661255,233.861542 
	C634.944946,253.125137 636.963684,272.338776 638.379639,291.595001 
	C638.976929,299.717743 639.358215,307.919861 638.946106,316.040619 
	C637.987488,334.934326 625.432007,349.087219 606.741272,351.891510 
	C597.934326,353.212891 588.881409,352.895233 579.596313,353.336609 
	C579.596313,345.346680 579.596313,338.096375 579.596313,330.042755 
	C582.003174,330.042755 584.415833,330.137299 586.818298,330.021423 
	C590.800293,329.829407 594.835144,329.842834 598.741943,329.162323 
	C607.578003,327.623322 612.883911,322.167145 612.951660,313.155701 
	C613.039062,301.529114 612.225281,289.884033 611.496521,278.265961 
	C610.527588,262.818390 608.708496,247.405258 608.262817,231.948273 
	C607.610168,209.312714 616.411560,197.547577 638.677429,190.178345 
	C636.653442,189.374786 635.248901,188.753525 633.802673,188.252731 
	C617.567993,182.631165 608.663208,170.652924 608.182617,153.424347 
	C608.038879,148.271957 608.396484,143.105576 608.570312,137.480591 
z"/>
<path fill="#1DE9E2" opacity="1.000000" stroke="none" 
	d="
M48.984482,109.128540 
	C48.001335,94.223869 46.546146,79.786354 46.267761,65.326195 
	C46.041641,53.581062 50.127014,43.108479 59.541382,35.307819 
	C65.749283,30.164009 72.948914,27.020811 80.883102,26.455023 
	C88.819901,25.889048 96.828568,26.330767 105.165916,26.330767 
	C105.165916,33.622471 105.165916,40.996952 105.165916,48.928219 
	C99.853752,48.928219 94.871582,48.697521 89.917809,48.974594 
	C78.381371,49.619850 71.614655,55.838684 71.961479,67.341721 
	C72.497818,85.130112 74.420532,102.872040 75.348969,120.654892 
	C75.980392,132.748810 77.013481,144.981796 75.889488,156.967163 
	C74.455353,172.259567 64.695580,181.663177 50.062317,185.991425 
	C49.425655,186.179749 48.798767,186.411133 48.186935,186.669006 
	C47.895916,186.791656 47.651066,187.023880 47.146641,187.370438 
	C51.409721,189.197647 55.764481,190.559143 59.603172,192.803375 
	C71.506088,199.762238 76.944824,211.017365 76.745125,224.153046 
	C76.482338,241.437820 74.609978,258.696716 73.485794,275.970367 
	C72.837105,285.937775 71.873787,295.909821 71.814621,305.884338 
	C71.733978,319.479950 78.036362,325.641632 91.631363,326.180939 
	C95.945427,326.352051 100.272003,326.207672 105.053406,326.207672 
	C105.053406,333.895966 105.053406,341.253998 105.053406,349.963501 
	C94.339592,348.974548 83.575157,349.082825 73.351173,346.785706 
	C56.943523,343.099243 46.224777,328.720337 46.348156,310.403107 
	C46.461174,293.623474 48.297176,276.852936 49.453358,260.083862 
	C50.094631,250.782913 51.062378,241.502518 51.594238,232.196365 
	C52.640892,213.882660 44.912624,203.492249 27.057348,198.810486 
	C25.619026,198.433365 24.188168,198.027740 22.588032,197.589996 
	C22.588032,190.875305 22.588032,184.245544 22.588032,177.677017 
	C26.326836,176.405838 29.997009,175.388840 33.483082,173.931473 
	C46.314934,168.567017 52.205421,159.893066 51.665787,145.947952 
	C51.196140,133.811325 49.933357,121.705399 48.984482,109.128540 
z"/>
<path fill="#FBFBFB" opacity="1.000000" stroke="none" 
	d="
M188.985596,93.454506 
	C189.002899,92.094154 189.002899,91.179688 189.002899,90.265221 
	C188.702408,90.219467 188.401932,90.173706 188.101440,90.127953 
	C183.083328,100.670563 178.063095,111.212173 173.048187,121.756310 
	C171.123367,125.803360 169.440338,129.991379 167.175980,133.837814 
	C166.307434,135.313217 164.127792,136.832581 162.540466,136.837997 
	C160.975250,136.843353 158.667114,135.318878 157.948914,133.848282 
	C150.971588,119.561287 144.260086,105.144447 136.603363,90.836075 
	C136.603363,113.720215 136.603363,136.604370 136.603363,159.743469 
	C132.834702,159.743469 129.728470,159.743469 126.273651,159.743469 
	C126.273651,132.312500 126.273651,104.749290 126.273651,76.420624 
	C130.543488,76.420624 134.969406,76.198303 139.344528,76.571548 
	C140.487701,76.669075 141.838531,78.441254 142.473740,79.746231 
	C148.576401,92.283798 154.541122,104.888466 160.560684,117.466583 
	C161.266220,118.940804 162.064148,120.370804 163.291397,122.728271 
	C167.827850,112.916229 172.002060,103.883995 176.180023,94.853493 
	C177.365128,92.291954 178.501068,89.705406 179.762756,87.181915 
	C185.719070,75.268570 185.731827,75.274948 199.778534,76.828873 
	C199.778534,104.357025 199.778534,131.917786 199.778534,159.741302 
	C196.346664,159.741302 192.943985,159.741302 188.968292,159.741302 
	C188.968292,137.760162 188.968292,115.830276 188.985596,93.454506 
z"/>
<path fill="#FAFAFA" opacity="1.000000" stroke="none" 
	d="
M504.979309,228.001297 
	C504.979309,250.114365 504.979309,271.727844 504.979309,293.592773 
	C501.198517,293.592773 497.804260,293.592773 494.117065,293.592773 
	C494.117065,270.296692 494.117065,247.199265 494.117065,224.101822 
	C493.817627,223.975098 493.518219,223.848373 493.218781,223.721649 
	C492.569824,224.838623 491.837097,225.915833 491.284668,227.078659 
	C484.879974,240.560059 478.580078,254.092407 472.010132,267.492432 
	C471.269531,269.002960 469.193176,270.217072 467.474762,270.807068 
	C464.785706,271.730347 463.409973,269.954407 462.298767,267.547699 
	C455.973358,253.848190 449.502686,240.215790 443.083679,226.559509 
	C442.628143,225.590408 442.190826,224.612732 441.058899,223.909012 
	C441.058899,246.984634 441.058899,270.060242 441.058899,293.489136 
	C437.738464,293.489136 434.673767,293.489136 431.206299,293.489136 
	C431.206299,265.981689 431.206299,238.311707 431.206299,210.189651 
	C435.441193,210.189651 439.603821,209.869629 443.667480,210.363785 
	C445.083649,210.535995 446.721802,212.491699 447.465790,214.019073 
	C454.216034,227.876526 460.790649,241.819565 467.888977,256.729645 
	C470.953461,250.210785 473.656494,244.499710 476.325989,238.772980 
	C480.180939,230.503067 484.155121,222.283859 487.773712,213.911331 
	C489.020508,211.026505 490.528870,209.856705 493.685181,210.115341 
	C497.282349,210.410095 500.922211,210.183502 504.979309,210.183502 
	C504.979309,216.262695 504.979309,221.882202 504.979309,228.001297 
z"/>
<path fill="#F9F9F9" opacity="1.000000" stroke="none" 
	d="
M286.722229,147.677429 
	C271.939240,167.840775 236.376083,165.285049 224.417114,145.414627 
	C215.166901,130.044937 215.420258,102.693695 226.271088,88.465729 
	C235.468857,76.405350 248.580399,73.287865 262.872650,75.157738 
	C275.938019,76.867104 286.008514,83.593994 290.880981,96.249802 
	C297.641235,113.808945 297.066589,131.021255 286.722229,147.677429 
M254.723465,151.994324 
	C268.010376,151.879730 276.503571,146.901703 280.564789,135.787598 
	C284.798981,124.200211 284.810272,112.249954 280.590942,100.644173 
	C276.708221,89.964287 267.592896,84.119759 256.322266,84.156677 
	C244.763153,84.194542 235.893768,90.222092 232.023300,101.263008 
	C228.287811,111.918816 228.213226,122.883743 231.506134,133.612701 
	C234.828217,144.436661 242.251846,150.881287 254.723465,151.994324 
z"/>
<path fill="#F9F9F9" opacity="1.000000" stroke="none" 
	d="
M350.936035,289.806183 
	C350.934723,263.175110 350.934723,237.023529 350.934723,210.181244 
	C364.670593,210.731796 378.340424,208.355408 391.580078,212.882751 
	C400.119720,215.802902 404.943024,222.037827 405.465179,231.098389 
	C406.069580,241.585953 402.191559,249.952805 392.848114,255.361908 
	C391.593475,256.088287 390.276825,256.707550 388.744171,257.503510 
	C398.968719,269.422455 409.013306,281.131622 419.121735,292.915192 
	C410.749207,295.589325 405.740967,294.120087 400.563843,287.869385 
	C394.089905,280.052917 387.348938,272.451508 381.059052,264.491882 
	C378.720093,261.532013 376.294861,260.290741 372.611755,260.612854 
	C369.321991,260.900543 365.987213,260.673309 362.234375,260.673309 
	C362.234375,271.735718 362.234375,282.493988 362.234375,293.157776 
	C353.436768,294.907776 351.496216,294.378754 350.936035,289.806183 
M377.164001,251.013474 
	C378.812592,250.800293 380.486084,250.702835 382.105499,250.354172 
	C389.633392,248.733368 393.858185,243.101349 393.907867,234.735611 
	C393.956421,226.551239 390.943085,222.189163 382.702393,220.841934 
	C376.081635,219.759521 369.241394,220.019424 362.429993,219.680283 
	C362.429993,230.705032 362.429993,240.915298 362.429993,251.056305 
	C367.270874,251.056305 371.751953,251.056305 377.164001,251.013474 
z"/>
<path fill="#F7F7F7" opacity="1.000000" stroke="none" 
	d="
M239.135956,256.111359 
	C238.182785,254.735840 237.240097,253.093781 236.275192,253.080612 
	C223.632706,252.908234 210.987076,252.966019 197.732910,252.966019 
	C197.732910,266.556366 197.732910,279.930237 197.732910,293.571289 
	C193.871979,293.571289 190.606888,293.571289 186.962311,293.571289 
	C186.962311,265.952789 186.962311,238.254303 186.962311,210.360748 
	C190.380432,210.360748 193.661697,210.360748 197.361786,210.360748 
	C197.361786,221.077118 197.361786,231.686981 197.361786,242.671173 
	C211.326508,242.671173 224.885269,242.671173 239.012939,242.671173 
	C239.012939,232.189102 239.012939,221.480408 239.012939,210.478775 
	C242.980331,210.478775 246.391220,210.478775 250.062866,210.478775 
	C250.062866,238.134354 250.062866,265.739319 250.062866,293.600464 
	C246.529022,293.600464 243.130997,293.600464 239.136108,293.600464 
	C239.136108,281.149261 239.136108,268.875610 239.135956,256.111359 
z"/>
<path fill="#F8F8F8" opacity="1.000000" stroke="none" 
	d="
M105.780693,227.108063 
	C109.982674,215.511093 118.998016,210.680191 129.925430,209.243057 
	C140.961899,207.791611 151.867966,209.388550 162.237915,213.557648 
	C163.599792,214.105164 164.982178,216.161285 165.196014,217.681702 
	C165.648056,220.895874 165.333679,224.217865 165.333679,228.009750 
	C154.421967,220.464661 143.086838,217.529709 130.676865,219.045944 
	C122.088585,220.095245 116.811012,225.052856 116.764862,231.956375 
	C116.725189,237.890854 118.931328,241.454391 124.770973,243.031372 
	C132.133530,245.019608 139.669495,246.364914 147.128387,247.997910 
	C148.752045,248.353394 150.391129,248.669250 151.980545,249.145401 
	C161.588776,252.023727 167.924103,257.615356 168.700455,268.361237 
	C169.313690,276.849396 164.477310,285.923279 156.002243,290.441345 
	C143.986801,296.846802 131.313171,296.048920 118.532967,293.476715 
	C117.718781,293.312805 116.893211,293.143799 116.118393,292.855133 
	C101.698364,287.483551 104.339737,291.890503 104.743828,274.764038 
	C107.025322,276.186493 108.995644,277.504242 111.047661,278.679291 
	C121.499260,284.664124 132.599747,287.286072 144.564575,284.711395 
	C146.795090,284.231415 149.014587,283.265198 150.984283,282.094513 
	C155.764679,279.253326 157.528961,274.856720 157.013199,269.375305 
	C156.520004,264.133575 153.267990,261.190643 148.623535,260.057953 
	C141.701950,258.369934 134.579422,257.507263 127.654991,255.828873 
	C117.892281,253.462509 108.490158,250.122360 105.901581,238.764252 
	C105.085129,235.181854 105.717514,231.269241 105.780693,227.108063 
z"/>
<path fill="#F6F6F6" opacity="1.000000" stroke="none" 
	d="
M353.066162,150.512711 
	C360.731110,146.827103 363.772858,140.472931 363.944214,132.932571 
	C364.318909,116.443619 364.201996,99.943474 364.282562,83.447884 
	C364.293030,81.307930 364.283997,79.167885 364.283997,76.645622 
	C368.025177,76.645622 371.419830,76.645622 374.990112,76.645622 
	C375.120911,77.276344 375.368317,77.908066 375.365753,78.538780 
	C375.293671,96.366562 375.435242,114.199829 375.018463,132.019958 
	C374.745392,143.692825 370.681061,154.067291 359.070618,158.601837 
	C346.278076,163.598053 333.133240,163.644516 321.615540,154.870911 
	C314.763367,149.651245 311.958435,141.801514 311.879761,133.301895 
	C311.705933,114.524063 311.825714,95.743507 311.825714,76.630234 
	C315.113464,76.630234 318.497437,76.630234 322.373932,76.630234 
	C322.373932,84.268738 322.353485,91.729263 322.378845,99.189629 
	C322.414551,109.685966 321.978729,120.214813 322.653564,130.671097 
	C323.765594,147.899948 333.421875,154.815063 350.295227,151.264862 
	C351.109436,151.093552 351.921204,150.910873 353.066162,150.512711 
z"/>
<path fill="#F8F8F8" opacity="1.000000" stroke="none" 
	d="
M586.928833,293.850098 
	C582.265015,294.698792 580.295349,292.791718 579.207825,288.724426 
	C577.841370,283.614349 575.995117,278.602905 573.935181,273.726654 
	C573.344360,272.328094 571.322815,270.657837 569.916870,270.620209 
	C559.934937,270.352875 549.939270,270.354095 539.957275,270.619019 
	C538.569641,270.655884 536.549316,272.331940 535.988953,273.720215 
	C533.334229,280.297211 531.084534,287.037659 528.727356,293.616943 
	C525.002319,293.616943 521.576416,293.616943 517.615662,293.616943 
	C521.872375,281.719360 525.951965,270.181091 530.128479,258.678040 
	C535.274048,244.505859 540.750305,230.446976 545.551392,216.160278 
	C547.155212,211.387756 549.270935,209.334305 554.293701,210.108109 
	C556.887207,210.507645 559.592957,210.178329 562.516724,210.178329 
	C572.624207,238.005157 582.674622,265.674805 592.908875,293.850525 
	C590.632202,293.850525 588.994812,293.850525 586.928833,293.850098 
M551.418884,229.888260 
	C547.773865,240.105316 544.128784,250.322357 540.393372,260.792786 
	C550.375610,260.792786 559.619080,260.792786 569.429016,260.792786 
	C564.648132,247.436310 559.989807,234.422363 554.862122,220.097000 
	C553.486450,224.189301 552.644104,226.695129 551.418884,229.888260 
z"/>
<path fill="#F8F8F8" opacity="1.000000" stroke="none" 
	d="
M326.896057,293.523560 
	C324.224762,286.916168 321.799377,280.557892 319.663971,274.103638 
	C318.818909,271.549469 317.751160,270.357941 314.808136,270.419525 
	C305.146912,270.621643 295.475525,270.634125 285.815338,270.407623 
	C282.826935,270.337555 281.846008,271.575134 281.020386,274.106445 
	C278.866791,280.709412 276.434723,287.221558 274.124847,293.738525 
	C270.401123,293.738525 267.087463,293.738525 262.934570,293.738525 
	C273.080353,265.816315 283.113892,238.202988 293.214081,210.406189 
	C298.061462,210.406189 302.835327,210.406189 307.994659,210.406189 
	C318.029541,237.973526 328.111389,265.669952 338.327118,293.734192 
	C334.209442,293.734192 330.733826,293.734192 326.896057,293.523560 
M303.747589,229.732574 
	C302.714050,226.895844 301.680481,224.059113 300.289825,220.242203 
	C295.250793,234.342804 290.561523,247.464676 285.837769,260.682983 
	C295.857300,260.682983 305.199158,260.682983 314.841919,260.682983 
	C311.127350,250.372650 307.544495,240.427994 303.747589,229.732574 
z"/>
<path fill="#F9F9F9" opacity="1.000000" stroke="none" 
	d="
M546.375732,105.387131 
	C543.068115,108.921967 539.997498,112.194351 536.644836,115.767242 
	C549.421509,130.271408 562.133423,144.702133 575.306580,159.656433 
	C567.419067,160.269211 560.873047,161.096085 555.260864,153.686905 
	C547.148499,142.977005 537.613342,133.344864 528.493042,123.035698 
	C523.460632,127.273743 518.868835,131.130081 519.816772,138.917160 
	C520.633850,145.629532 519.986328,152.520218 519.986328,159.668900 
	C516.382629,159.668900 512.976868,159.668900 509.218414,159.668900 
	C509.218414,132.281494 509.218414,104.723099 509.218414,76.782059 
	C512.625061,76.782059 516.144348,76.782059 519.845093,76.782059 
	C519.845093,90.817429 519.845093,104.619736 519.845093,119.794640 
	C524.698792,114.707474 528.857361,110.451195 532.901489,106.088837 
	C541.383789,96.939125 549.724548,87.655800 558.341980,78.636147 
	C559.612915,77.305893 562.029236,76.743622 564.001404,76.488380 
	C566.755798,76.131889 569.590820,76.398521 573.799500,76.398521 
	C564.209412,86.531624 555.411011,95.828148 546.375732,105.387131 
z"/>
<path fill="#F7F7F7" opacity="1.000000" stroke="none" 
	d="
M421.005737,150.005264 
	C430.614410,150.005264 439.723480,150.005264 449.012390,150.005264 
	C449.012390,153.431061 449.012390,156.388107 449.012390,159.681015 
	C431.723114,159.681015 414.348999,159.681015 396.758179,159.681015 
	C396.758179,132.087311 396.758179,104.527405 396.758179,76.682983 
	C400.254028,76.682983 403.516449,76.682983 407.279846,76.682983 
	C407.279846,100.859818 407.279846,125.082520 407.279846,150.005264 
	C412.006714,150.005264 416.256439,150.005264 421.005737,150.005264 
z"/>
<path fill="#F7F7F7" opacity="1.000000" stroke="none" 
	d="
M478.893433,90.099167 
	C478.893402,110.713188 478.893402,130.836472 478.893402,151.369934 
	C482.594421,151.369934 485.855530,151.369934 489.456238,151.369934 
	C489.456238,154.326523 489.456238,156.881561 489.456238,159.729462 
	C478.668549,159.729462 467.937408,159.729462 457.078735,159.729462 
	C457.078735,156.989517 457.078735,154.401627 457.078735,151.385010 
	C460.547791,151.385010 463.824127,151.385010 467.419098,151.385010 
	C467.419098,129.221924 467.419098,107.484253 467.419098,85.254074 
	C464.202423,85.254074 460.824188,85.254074 457.162781,85.254074 
	C457.162781,82.196869 457.162781,79.615501 457.162781,76.706924 
	C467.859924,76.706924 478.577118,76.706924 489.544159,76.706924 
	C489.544159,79.382584 489.544159,81.820229 489.544159,84.785660 
	C486.195679,84.785660 482.809052,84.785660 479.104492,84.785660 
	C479.019623,86.725189 478.956543,88.166809 478.893433,90.099167 
z"/>
<path fill="#020202" opacity="1.000000" stroke="none" 
	d="
M254.280762,151.970490 
	C242.251846,150.881287 234.828217,144.436661 231.506134,133.612701 
	C228.213226,122.883743 228.287811,111.918816 232.023300,101.263008 
	C235.893768,90.222092 244.763153,84.194542 256.322266,84.156677 
	C267.592896,84.119759 276.708221,89.964287 280.590942,100.644173 
	C284.810272,112.249954 284.798981,124.200211 280.564789,135.787598 
	C276.503571,146.901703 268.010376,151.879730 254.280762,151.970490 
z"/>
<path fill="#030303" opacity="1.000000" stroke="none" 
	d="
M376.698517,251.034882 
	C371.751953,251.056305 367.270874,251.056305 362.429993,251.056305 
	C362.429993,240.915298 362.429993,230.705032 362.429993,219.680283 
	C369.241394,220.019424 376.081635,219.759521 382.702393,220.841934 
	C390.943085,222.189163 393.956421,226.551239 393.907867,234.735611 
	C393.858185,243.101349 389.633392,248.733368 382.105499,250.354172 
	C380.486084,250.702835 378.812592,250.800293 376.698517,251.034882 
z"/>
<path fill="#050505" opacity="1.000000" stroke="none" 
	d="
M551.610291,229.544617 
	C552.644104,226.695129 553.486450,224.189301 554.862122,220.097000 
	C559.989807,234.422363 564.648132,247.436310 569.429016,260.792786 
	C559.619080,260.792786 550.375610,260.792786 540.393372,260.792786 
	C544.128784,250.322357 547.773865,240.105316 551.610291,229.544617 
z"/>
<path fill="#060606" opacity="1.000000" stroke="none" 
	d="
M303.854614,230.107941 
	C307.544495,240.427994 311.127350,250.372650 314.841919,260.682983 
	C305.199158,260.682983 295.857300,260.682983 285.837769,260.682983 
	C290.561523,247.464676 295.250793,234.342804 300.289825,220.242203 
	C301.680481,224.059113 302.714050,226.895844 303.854614,230.107941 
z"/>
</svg>